<?xml version="1.0" standalone="no"?>
<!DOCTYPE svg PUBLIC "-//W3C//DTD SVG 20010904//EN"
 "http://www.w3.org/TR/2001/REC-SVG-20010904/DTD/svg10.dtd">
<svg version="1.0" xmlns="http://www.w3.org/2000/svg"
 width="512.000000pt" height="512.000000pt" viewBox="0 0 512.000000 512.000000"
 preserveAspectRatio="xMidYMid meet">
<metadata>
Created by potrace 1.11, written by Peter Selinger 2001-2013
</metadata>
<g transform="translate(0.000000,512.000000) scale(0.100000,-0.100000)"
fill="#000000" stroke="none">
<path d="M3404 4205 c-92 -21 -163 -73 -218 -162 -30 -49 -66 -139 -66 -166 0
-25 -10 -20 -62 28 -167 157 -410 265 -653 290 -88 9 -268 7 -345 -5 -41 -6
-86 -13 -100 -15 -66 -9 -223 -60 -295 -96 -141 -69 -284 -193 -397 -344 -71
-96 -166 -282 -196 -385 -93 -321 -97 -747 -11 -1060 11 -41 24 -88 28 -105
25 -92 123 -285 197 -386 229 -311 564 -477 964 -479 123 -1 209 7 290 26 36
9 74 17 85 20 53 10 170 65 245 113 45 29 149 109 170 131 14 15 43 34 38 25
-4 -6 -10 -91 -13 -189 -4 -98 -8 -188 -11 -200 -12 -63 -18 -85 -37 -131 -21
-51 -66 -116 -102 -147 -39 -34 -141 -78 -230 -99 -114 -26 -298 -32 -402 -12
-171 32 -250 83 -391 250 -146 175 -236 228 -387 227 -95 -1 -164 -24 -240
-82 -155 -117 -182 -323 -68 -509 49 -79 82 -115 168 -184 216 -174 477 -274
825 -316 86 -10 473 -10 580 0 131 13 337 53 437 86 381 124 608 387 703 811
10 47 22 108 25 135 3 28 8 59 10 70 2 11 7 63 11 115 8 115 9 2266 0 2332
-16 129 -58 224 -136 307 -45 48 -122 93 -182 107 -47 11 -185 11 -234 -1z
m-723 -669 c204 -60 381 -282 423 -529 28 -163 25 -435 -5 -514 -6 -15 -10
-30 -10 -33 4 -27 -77 -196 -122 -255 -131 -172 -366 -259 -579 -214 -152 33
-312 164 -386 319 -64 132 -86 253 -86 470 1 262 42 422 141 545 57 70 136
144 182 169 114 61 312 80 442 42z"/>
</g>
</svg>
